<svg width="30" height="25" viewBox="0 0 32 27" fill="none" xmlns="http://www.w3.org/2000/svg">
<g clip-path="url(#clip0_965_16)">
<path d="M17.2709 23.2847H14.7289C14.6156 23.2847 14.5069 23.2406 14.4269 23.1623C14.3468 23.0839 14.3018 22.9777 14.3018 22.8669V2.68709C14.3018 2.24651 14.4807 1.82397 14.7991 1.51244C15.1176 1.2009 15.5495 1.02588 15.9999 1.02588C16.4503 1.02588 16.8822 1.2009 17.2006 1.51244C17.5191 1.82397 17.698 2.24651 17.698 2.68709V22.8673C17.6979 22.978 17.6529 23.0842 17.5728 23.1624C17.4927 23.2407 17.3841 23.2847 17.2709 23.2847ZM15.1559 22.449H16.8438V2.68709C16.8438 2.46813 16.7549 2.25814 16.5966 2.10331C16.4384 1.94848 16.2237 1.8615 15.9999 1.8615C15.7761 1.8615 15.5614 1.94848 15.4031 2.10331C15.2449 2.25814 15.1559 2.46813 15.1559 2.68709V22.449Z" fill="#D0A144"/>
<path d="M5.70682 6.62696H4.24061C3.89274 6.62085 3.56122 6.48138 3.31742 6.23856C3.07361 5.99574 2.93701 5.66898 2.93701 5.32862C2.93701 4.98825 3.07361 4.6615 3.31742 4.41867C3.56122 4.17585 3.89274 4.03638 4.24061 4.03027H5.49883C5.6121 4.03027 5.72073 4.07429 5.80083 4.15265C5.88093 4.231 5.92592 4.33727 5.92592 4.44808C5.92592 4.55889 5.88093 4.66516 5.80083 4.74352C5.72073 4.82187 5.6121 4.86589 5.49883 4.86589H4.24061C4.11762 4.86951 4.00091 4.91984 3.91522 5.00623C3.82953 5.09261 3.7816 5.20825 3.7816 5.32862C3.7816 5.44899 3.82953 5.56462 3.91522 5.651C4.00091 5.73739 4.11762 5.78772 4.24061 5.79134H5.70682C5.8201 5.79134 5.92873 5.83536 6.00882 5.91371C6.08892 5.99207 6.13392 6.09834 6.13392 6.20915C6.13392 6.31996 6.08892 6.42623 6.00882 6.50459C5.92873 6.58294 5.8201 6.62696 5.70682 6.62696Z" fill="#D0A144"/>
<path d="M14.7288 6.62696H8.29038C8.1771 6.62696 8.06847 6.58294 7.98837 6.50459C7.90828 6.42623 7.86328 6.31996 7.86328 6.20915C7.86328 6.09834 7.90828 5.99207 7.98837 5.91371C8.06847 5.83536 8.1771 5.79134 8.29038 5.79134H14.3017V4.86589H8.49794C8.38467 4.86589 8.27604 4.82187 8.19594 4.74352C8.11585 4.66516 8.07085 4.55889 8.07085 4.44808C8.07085 4.33727 8.11585 4.231 8.19594 4.15265C8.27604 4.07429 8.38467 4.03027 8.49794 4.03027H14.7288C14.8421 4.03027 14.9507 4.07429 15.0308 4.15265C15.1109 4.231 15.1559 4.33727 15.1559 4.44808V6.20915C15.1559 6.31996 15.1109 6.42623 15.0308 6.50459C14.9507 6.58294 14.8421 6.62696 14.7288 6.62696Z" fill="#D0A144"/>
<path d="M23.6167 6.62696H17.2713C17.1581 6.62696 17.0494 6.58294 16.9693 6.50459C16.8892 6.42623 16.8442 6.31996 16.8442 6.20915V4.44808C16.8442 4.33727 16.8892 4.231 16.9693 4.15265C17.0494 4.07429 17.1581 4.03027 17.2713 4.03027H23.4091C23.5224 4.03027 23.631 4.07429 23.7111 4.15265C23.7912 4.231 23.8362 4.33727 23.8362 4.44808C23.8362 4.55889 23.7912 4.66516 23.7111 4.74352C23.631 4.82187 23.5224 4.86589 23.4091 4.86589H17.6984V5.79134H23.6167C23.7299 5.79134 23.8386 5.83536 23.9187 5.91371C23.9988 5.99207 24.0438 6.09834 24.0438 6.20915C24.0438 6.31996 23.9988 6.42623 23.9187 6.50459C23.8386 6.58294 23.7299 6.62696 23.6167 6.62696Z" fill="#D0A144"/>
<path d="M27.7548 6.62696H26.2928C26.1795 6.62696 26.0709 6.58294 25.9908 6.50459C25.9107 6.42623 25.8657 6.31996 25.8657 6.20915C25.8657 6.09834 25.9107 5.99207 25.9908 5.91371C26.0709 5.83536 26.1795 5.79134 26.2928 5.79134H27.7548C27.8778 5.78772 27.9945 5.73739 28.0802 5.651C28.1658 5.56462 28.2138 5.44899 28.2138 5.32862C28.2138 5.20825 28.1658 5.09261 28.0802 5.00623C27.9945 4.91984 27.8778 4.86951 27.7548 4.86589H26.5034C26.3901 4.86589 26.2815 4.82187 26.2014 4.74352C26.1213 4.66516 26.0763 4.55889 26.0763 4.44808C26.0763 4.33727 26.1213 4.231 26.2014 4.15265C26.2815 4.07429 26.3901 4.03027 26.5034 4.03027H27.7548C28.1026 4.03638 28.4341 4.17585 28.678 4.41867C28.9218 4.6615 29.0584 4.98825 29.0584 5.32862C29.0584 5.66898 28.9218 5.99574 28.678 6.23856C28.4341 6.48138 28.1026 6.62085 27.7548 6.62696Z" fill="#D0A144"/>
<path d="M21.4092 25.9735H10.5909C10.5261 25.9735 10.4621 25.959 10.4039 25.9312C10.3456 25.9034 10.2946 25.863 10.2547 25.813C10.2147 25.763 10.187 25.7048 10.1734 25.6428C10.1599 25.5808 10.161 25.5165 10.1767 25.455C10.3528 24.6287 10.8062 23.8838 11.465 23.3387C12.1238 22.7936 12.9499 22.4796 13.8121 22.4468H18.1881C19.0502 22.4796 19.8764 22.7936 20.5352 23.3387C21.1939 23.8838 21.6474 24.6287 21.8235 25.455C21.8391 25.5165 21.8402 25.5808 21.8267 25.6428C21.8132 25.7048 21.7854 25.763 21.7455 25.813C21.7056 25.863 21.6545 25.9034 21.5963 25.9312C21.538 25.959 21.474 25.9735 21.4092 25.9735ZM11.1816 25.1379H20.8185C20.6152 24.61 20.2572 24.1525 19.7893 23.8228C19.3213 23.4931 18.7643 23.3058 18.1881 23.2845H13.8121C13.2358 23.3058 12.6788 23.4931 12.2109 23.8228C11.743 24.1525 11.3849 24.61 11.1816 25.1379Z" fill="#D0A144"/>
<path d="M22.5658 25.9738H9.43442C9.32115 25.9738 9.21251 25.9298 9.13242 25.8514C9.05232 25.7731 9.00732 25.6668 9.00732 25.556C9.00732 25.4452 9.05232 25.3389 9.13242 25.2606C9.21251 25.1822 9.32115 25.1382 9.43442 25.1382H22.5658C22.6791 25.1382 22.7877 25.1822 22.8678 25.2606C22.9479 25.3389 22.9929 25.4452 22.9929 25.556C22.9929 25.6668 22.9479 25.7731 22.8678 25.8514C22.7877 25.9298 22.6791 25.9738 22.5658 25.9738Z" fill="#D0A144"/>
<path d="M30.5211 17.103H19.4845C19.413 17.103 19.3427 17.0855 19.2799 17.0521C19.2171 17.0186 19.1639 16.9703 19.1252 16.9115C19.0865 16.8527 19.0635 16.7853 19.0583 16.7156C19.0531 16.6458 19.0658 16.5759 19.0954 16.5122L23.7849 6.4121C23.808 6.362 23.841 6.31684 23.882 6.27922C23.9229 6.2416 23.9711 6.21225 24.0237 6.19287C24.0762 6.17348 24.1322 6.16443 24.1883 6.16624C24.2445 6.16805 24.2997 6.18068 24.3509 6.20341C24.4021 6.22614 24.4481 6.25851 24.4865 6.29869C24.5248 6.33886 24.5547 6.38604 24.5743 6.43753C24.594 6.48901 24.6031 6.54379 24.6011 6.59872C24.5991 6.65365 24.5861 6.70765 24.5627 6.75763L20.1474 16.2674H29.8565L25.4451 6.75763C25.4219 6.70765 25.409 6.65369 25.4072 6.59884C25.4053 6.54399 25.4145 6.48932 25.4343 6.43795C25.454 6.38658 25.4839 6.33952 25.5223 6.29946C25.5606 6.25939 25.6067 6.22711 25.6577 6.20445C25.7088 6.18179 25.764 6.1692 25.8201 6.16739C25.8761 6.16558 25.932 6.1746 25.9845 6.19392C26.037 6.21324 26.0851 6.24249 26.1261 6.28C26.1671 6.3175 26.2001 6.36254 26.2232 6.41252L30.908 16.5126C30.9374 16.5761 30.9502 16.6458 30.945 16.7153C30.9399 16.7849 30.917 16.852 30.8786 16.9107C30.8401 16.9694 30.7873 17.0177 30.7248 17.0513C30.6624 17.0849 30.5923 17.1027 30.5211 17.103Z" fill="#D0A144"/>
<path d="M25.0465 22.4324H24.9577C21.5379 22.4324 19.0557 20.0158 19.0557 16.6859C19.0557 16.5751 19.1007 16.4688 19.1808 16.3904C19.2609 16.3121 19.3695 16.2681 19.4828 16.2681H30.521C30.6343 16.2681 30.7429 16.3121 30.823 16.3904C30.9031 16.4688 30.9481 16.5751 30.9481 16.6859C30.9481 20.0179 28.4658 22.4324 25.0465 22.4324ZM19.9248 17.1037C20.1153 19.7702 22.1307 21.5968 24.9577 21.5968H25.0465C27.873 21.5968 29.8889 19.7702 30.0789 17.1037H19.9248Z" fill="#D0A144"/>
<path d="M25.0024 7.22313C24.5871 7.22322 24.1811 7.10281 23.8357 6.87716C23.4904 6.6515 23.2212 6.33072 23.0622 5.95539C22.9033 5.58006 22.8617 5.16705 22.9427 4.76858C23.0237 4.37012 23.2236 4.0041 23.5173 3.71682C23.811 3.42955 24.1851 3.23392 24.5924 3.15468C24.9997 3.07544 25.4219 3.11615 25.8056 3.27166C26.1893 3.42717 26.5172 3.6905 26.7478 4.02833C26.9785 4.36617 27.1016 4.76333 27.1015 5.1696C27.1008 5.71403 26.8795 6.23597 26.4859 6.62094C26.0924 7.0059 25.5589 7.22247 25.0024 7.22313ZM25.0024 3.95127C24.756 3.95119 24.5152 4.02257 24.3103 4.15639C24.1055 4.29022 23.9458 4.48046 23.8515 4.70308C23.7571 4.92569 23.7324 5.17067 23.7804 5.40703C23.8284 5.64339 23.947 5.86052 24.1211 6.03095C24.2953 6.20137 24.5172 6.31745 24.7588 6.36449C25.0004 6.41154 25.2508 6.38743 25.4784 6.29523C25.706 6.20303 25.9005 6.04688 26.0374 5.84651C26.1743 5.64615 26.2473 5.41058 26.2473 5.1696C26.247 4.84666 26.1157 4.53702 25.8823 4.30863C25.6489 4.08023 25.3325 3.95171 25.0024 3.95127Z" fill="#D0A144"/>
<path d="M12.5148 17.1032H1.47873C1.40727 17.1032 1.33696 17.0856 1.27424 17.0521C1.21151 17.0186 1.15838 16.9703 1.11971 16.9115C1.08103 16.8527 1.05806 16.7854 1.05288 16.7157C1.0477 16.6459 1.06049 16.576 1.09008 16.5124L5.78042 6.41231C5.82726 6.31136 5.91317 6.23275 6.01926 6.19377C6.12534 6.15479 6.24292 6.15863 6.34611 6.20445C6.4493 6.25027 6.52966 6.33431 6.5695 6.43809C6.60935 6.54187 6.60542 6.65689 6.55859 6.75784L2.14329 16.2676H11.8524L7.44096 6.75784C7.41643 6.70769 7.40238 6.65327 7.39962 6.59774C7.39686 6.54222 7.40546 6.48672 7.42491 6.43449C7.44436 6.38225 7.47426 6.33434 7.51288 6.29356C7.55149 6.25278 7.59804 6.21995 7.64979 6.19698C7.70153 6.17402 7.75745 6.16139 7.81425 6.15983C7.87105 6.15827 7.9276 6.16782 7.98058 6.18791C8.03356 6.20801 8.08191 6.23824 8.1228 6.27684C8.16369 6.31545 8.19629 6.36164 8.2187 6.41273L12.9039 16.5128C12.9334 16.5765 12.9461 16.6464 12.9409 16.7161C12.9356 16.7858 12.9126 16.8531 12.8739 16.9118C12.8352 16.9705 12.782 17.0188 12.7193 17.0523C12.6566 17.0857 12.5863 17.1032 12.5148 17.1032Z" fill="#D0A144"/>
<path d="M7.04217 22.4324H6.95334C3.53403 22.4324 1.05176 20.0179 1.05176 16.6859C1.05176 16.5751 1.09676 16.4688 1.17685 16.3904C1.25695 16.3121 1.36558 16.2681 1.47885 16.2681H12.5171C12.6304 16.2681 12.739 16.3121 12.8191 16.3904C12.8992 16.4688 12.9442 16.5751 12.9442 16.6859C12.9442 20.0179 10.4619 22.4324 7.04217 22.4324ZM1.92089 17.1037C2.11095 19.7702 4.12683 21.5968 6.95334 21.5968H7.04217C9.86911 21.5968 11.8846 19.7702 12.075 17.1037H1.92089Z" fill="#D0A144"/>
<path d="M6.99754 7.22313C6.58226 7.22313 6.17631 7.10266 5.83103 6.87695C5.48574 6.65124 5.21663 6.33044 5.05773 5.9551C4.89883 5.57977 4.85728 5.16676 4.93832 4.76833C5.01937 4.36989 5.21938 4.00391 5.51306 3.71668C5.80673 3.42944 6.18089 3.23386 6.58819 3.15465C6.9955 3.07545 7.41768 3.11618 7.80132 3.2717C8.18496 3.42723 8.51284 3.69055 8.7435 4.02838C8.97415 4.3662 9.09722 4.76335 9.09714 5.1696C9.09646 5.7141 8.87502 6.2361 8.4814 6.62108C8.08779 7.00606 7.55414 7.22258 6.99754 7.22313ZM6.99754 3.95127C6.75123 3.95127 6.51044 4.02273 6.30563 4.1566C6.10083 4.29047 5.9412 4.48075 5.84694 4.70337C5.75268 4.92599 5.72801 5.17095 5.77607 5.40729C5.82412 5.64362 5.94274 5.86071 6.11691 6.03109C6.29108 6.20148 6.51299 6.31751 6.75458 6.36452C6.99616 6.41153 7.24657 6.38741 7.47414 6.29519C7.70171 6.20298 7.89621 6.04683 8.03306 5.84647C8.16991 5.64612 8.24295 5.41057 8.24295 5.1696C8.24261 4.84658 8.11129 4.53689 7.8778 4.30848C7.64432 4.08007 7.32774 3.9516 6.99754 3.95127Z" fill="#D0A144"/>
</g>
<defs>
<clipPath id="clip0_965_16">
<rect width="30" height="25" fill="white" transform="translate(1 1)"/>
</clipPath>
</defs>
</svg>
